<?xml version="1.0" encoding="utf-8"?>
<!-- Generator: Adobe Illustrator 23.1.1, SVG Export Plug-In . SVG Version: 6.00 Build 0)  -->
<svg version="1.1" id="Capa_1" xmlns="http://www.w3.org/2000/svg" xmlns:xlink="http://www.w3.org/1999/xlink" x="0px" y="0px"
	 viewBox="0 0 1943.5 815.8" style="enable-background:new 0 0 1943.5 815.8;" xml:space="preserve">
<style type="text/css">
	.st0{fill:#6F7D89;}
	.st1{fill:#2364AA;}
	.st2{fill:#B3C646;}
	.st3{opacity:0.1;enable-background:new    ;}
	.st4{fill:#7B882F;}
	.st5{fill:#E4E02C;}
	.st6{opacity:5.000000e-02;enable-background:new    ;}
	.st7{opacity:0.1;}
	.st8{fill:#FFA8CB;}
	.st9{fill:#FFB229;}
	.st10{fill:#DEE2E5;}
	.st11{fill:#CD5B5B;}
	.st12{fill:#495059;}
	.st13{fill:#FF7F11;}
</style>
<ellipse class="st0" cx="1351" cy="770.5" rx="416.3" ry="16.7"/>
<circle class="st1" cx="978.9" cy="400.7" r="377.2"/>
<g>
	<g>
		<path class="st2" d="M934.7,684.8c-81.5,0-175.2,0-243.9-47.1c-11.7-8.1-5-27.5,8.9-25.5c54.4,7.8,100-7.1,126-31.2L934.7,684.8z"
			/>
		<path class="st3" d="M795,600.9c0.9,28,4.9,55.9,20.9,79.1c39.7,4.8,80.6,4.8,118.7,4.8l-109-103.8
			C817.4,588.8,807.1,595.5,795,600.9z"/>
		<g>
			<path class="st4" d="M898.3,770.2c-0.7,0-1.4,0-2.1-0.1c-14.8-1.2-25.9-15.1-24.7-31c1-14.4-0.1-62.5-2-73.2
				c-4.4-14.3,2.2-30,15.4-35.8c13.7-6,29.4,1.1,35,15.8c7.2,19.1,5.5,92.9,5.2,97.6C923.9,758.7,912.2,770.2,898.3,770.2z
				 M870.1,667.8C870.1,667.8,870.1,667.8,870.1,667.8C870.1,667.8,870.1,667.8,870.1,667.8z"/>
			<path class="st4" d="M995.7,770.2c-0.7,0-1.4,0-2.1-0.1c-14.8-1.2-25.9-15.1-24.7-31c1-14.4-0.1-62.5-2-73.2
				c-4.4-14.3,2.2-30,15.4-35.8c13.7-6,29.4,1.1,35,15.8c7.2,19.1,5.5,92.9,5.2,97.6C1021.3,758.7,1009.6,770.2,995.7,770.2z
				 M967.5,667.8C967.5,667.8,967.5,667.8,967.5,667.8C967.5,667.8,967.5,667.8,967.5,667.8z"/>
		</g>
		<path class="st3" d="M884.8,630.2c-13.2,5.8-19.8,21.5-15.4,35.8c1.3,7.4,2.3,33.2,2.4,52.9c15.2,4.7,33,7.6,53.5,8.6
			c0.2-24-0.2-67.5-5.6-81.5C914.2,631.3,898.5,624.2,884.8,630.2z"/>
		<path class="st3" d="M1022.8,716.8c0-24.5-1-58.7-5.6-70.8c-5.6-14.8-21.3-21.9-35-15.8c-13.2,5.8-19.8,21.5-15.4,35.8
			c1.5,8.5,2.6,41.2,2.4,61.2C990,725.7,1007.7,722.3,1022.8,716.8z"/>
		<path class="st2" d="M1066.9,583c0,67.4-8.5,116.1-122.6,116.1S821.6,650.4,821.6,583s54.9-122,122.6-122
			C1012,461,1066.9,515.6,1066.9,583z"/>
		<path class="st5" d="M1066.9,583c0-0.5,0-1.1,0-1.6c-25.5-7-76.2-9.1-111.5,31.2c-25.7,29.3-29.4,61-26.7,86.2
			c4.9,0.2,10.1,0.3,15.5,0.3C1058.4,699.1,1066.9,650.4,1066.9,583z"/>
		<path class="st6" d="M921,463.2c-56.6,10.8-99.3,60.3-99.3,119.8c0,62.4,7.3,108.8,99,115.3C869.7,642.8,879.6,528.2,921,463.2z"
			/>
		<path class="st2" d="M1064.6,289.7L1064.6,289.7c-18.1-35.9-51.7-59.6-89.6-63.1l-46.5-4.4c-66.1-6.2-124.4,46.3-130.1,117.3
			l-4.8,59.1c-5.2,63.7,38.7,119.9,98,125.5l246.4,23.2c44.4,4.2,83.6-31.1,87.5-78.9l3.3-40.2c3.9-47.7-29-89.8-73.4-94l-31.9-3
			C1098.6,328.9,1076.5,313.3,1064.6,289.7z"/>
		<g class="st7">
			<ellipse cx="856.3" cy="432.9" rx="8.3" ry="8.9"/>
			<ellipse cx="913.8" cy="451.9" rx="8.3" ry="8.9"/>
			<ellipse cx="877.8" cy="479" rx="8.3" ry="8.9"/>
		</g>
		<g>
			
				<ellipse transform="matrix(9.905121e-02 -0.9951 0.9951 9.905121e-02 488.6322 1192.9792)" class="st8" cx="903.1" cy="326.6" rx="11.5" ry="20.9"/>
			
				<ellipse transform="matrix(9.905121e-02 -0.9951 0.9951 9.905121e-02 601.2007 1343.4436)" class="st8" cx="1042.5" cy="339.7" rx="11.5" ry="20.9"/>
		</g>
		<path class="st6" d="M901.7,222.9c-54.4,8-98.3,55.4-103.3,116.6l-4.8,59.1c-5.2,63.7,38.7,119.9,98,125.5l65.2,6.1
			C866.7,462.1,863.9,297.4,901.7,222.9z"/>
		<polygon class="st9" points="1174.1,580.3 1141.6,676.4 861.2,566.8 893.8,470.7 		"/>
		<polygon class="st10" points="893.8,470.6 861.2,566.8 808.2,546 840.7,449.9 		"/>
		<path class="st11" d="M840.7,449.9l-32.6,96.1l-43.1-16.8c-13.4-5.2-20.3-21.1-15.4-35.5l15-44.1c4.9-14.4,19.6-21.8,33-16.5
			L840.7,449.9z"/>
		<polygon class="st10" points="1211.2,622 1174.2,580.3 1141.6,676.5 1194.9,670.1 		"/>
		<path class="st12" d="M1194.9,670.1l33.9-4c8-1,11.5-11.3,5.9-17.5l-23.5-26.5L1194.9,670.1z"/>
		<polygon class="st3" points="1154.6,637.9 874.3,528.3 880.7,509.2 1161.1,618.8 		"/>
		<path class="st3" d="M777.7,434.1c-5.9,3-10.7,8.4-13.1,15.5l-15,44.1c-4.9,14.4,2,30.2,15.4,35.5l231.5,90.5
			C908,560,788.4,508.4,777.7,434.1z"/>
		<path class="st4" d="M945.2,627.7c-5.5,0-10.9-2.8-14.3-7.9c-5.6-8.5-3.7-20.2,4.2-26.2c4.3-3.2,7.9-6.8,10.9-10.5
			c6.3-7.9,17.3-8.8,24.6-2.1c7.3,6.7,8.2,18.6,1.9,26.4c-4.9,6.1-10.7,11.8-17.3,16.8C952.3,626.6,948.7,627.7,945.2,627.7z"/>
		<path d="M1305,688.7c8.5-18.8,20.2-44.4,13.1-79.9c-3.4-17-14-30.9-29.9-39c-13.5-6.9-29.8-9.2-44.9-6.2c-5.1,1-8.5,6.3-7.6,11.8
			c0.9,5.5,5.8,9.2,11,8.2c27.9-5.4,49.2,11.1,52.9,29.5c5.7,28.6-3.5,48.9-11.6,66.8c-8.7,19.3-18.6,41.1,3.1,62.5
			c1.8,1.8,4.1,2.7,6.4,2.7c2.6,0,5.1-1.1,7-3.3c3.5-4.1,3.3-10.5-0.6-14.3C1293.1,716.7,1295.8,709.1,1305,688.7z M1017.2,324.7
			c0.3,0,0.6,0,0.8,0c4.8,0,9-4,9.4-9.3l0.9-11.1c0.5-5.6-3.4-10.5-8.6-11c-5.2-0.5-9.8,3.6-10.2,9.2l-0.9,11.1
			C1008.1,319.3,1012,324.2,1017.2,324.7z M1241.6,641.5l-60.6-68.2c0,0-0.1-0.1-0.1-0.1c-0.2-0.2-0.4-0.4-0.5-0.5
			c-0.1-0.1-0.2-0.1-0.2-0.2c-0.2-0.2-0.4-0.3-0.6-0.5c-0.1-0.1-0.2-0.1-0.2-0.2c-0.2-0.1-0.4-0.3-0.7-0.4c-0.1,0-0.1-0.1-0.2-0.1
			c-0.3-0.2-0.6-0.3-1-0.4l-33.1-12.9c0.3,0,0.6,0,0.9,0c21.2,0,41.4-7.9,57.8-22.7c18.5-16.6,29.8-40,31.9-65.8l3.3-40.2
			c4.3-53.2-32.5-100.4-82-105l-31.9-3c-21.8-2-41-15.6-51.4-36.2c-19.7-39-55.9-64.5-97-68.4l-46.5-4.4c-34.5-3.2-68.1,8.1-94.6,32
			S792,301.7,789,338.7l-4.8,59.1c-0.6,7.9-0.6,15.9,0.2,23.8c-12.6,1.8-23.9,10.9-28.5,24.6l-15,44.1c-3.2,9.5-2.8,19.8,1.2,28.9
			c4,9.2,11,16.1,19.9,19.6l43.1,16.8c0,0,0,0,0,0c0,0,0,0,0,0l9.4,3.7c-1.2,6.6-1.9,13.4-2.1,20.2c-27.3,20.4-68.4,28.9-111.3,22.7
			c-10.7-1.5-20.5,4.8-24.2,15.7c-3.7,10.8-0.1,22.3,9,28.5c53.8,36.9,120.4,44.8,172.9,47.4c1,0.5,2.1,1.1,3.2,1.6
			c0.6,17.3,0.6,35.6,0.1,43.1c-1.5,21.4,13.5,40.2,33.4,41.9c0.9,0.1,1.9,0.1,2.8,0.1c18.8,0,34.7-15.8,36.2-36
			c0.2-2.3,0.6-17.2,0.4-35.2c3.1,0.1,6.2,0.1,9.4,0.1c5.3,0,10.4-0.1,15.4-0.3c0.2,12.7,0.1,24.1-0.2,29.4
			c-1.5,21.4,13.5,40.2,33.4,41.9c0.9,0.1,1.9,0.1,2.8,0.1c12.3,0,23.7-6.7,30.4-17.8c2.8-4.7,1.6-11-2.8-14
			c-4.4-3.1-10.2-1.7-13.1,3c-3.5,5.8-9.5,9-16,8.5c-9.6-0.8-16.8-9.8-16-20.1c0.5-6.9,0.5-20,0.3-32.4c13-1.4,24.5-3.8,34.7-7.1
			c0.1,5.6,0.2,11.5,0.2,17.7c0,5.6,4.2,10.2,9.4,10.2h0c5.2,0,9.4-4.5,9.4-10.1c0-9.2-0.1-17.8-0.4-25.7
			c15.2-8.4,26.1-20,33.2-35.2l73.3,28.7c0.3,0.1,0.5,0.2,0.8,0.3c0.8,0.2,1.6,0.3,2.4,0.3c0,0,0.1,0,0.1,0c0.3,0,0.6,0,0.9-0.1
			l87.2-10.4c0.9-0.1,1.7-0.3,2.6-0.5c0,0.1,0,0.2,0,0.3c-1.7,14.4-11.8,33.4-21.3,39.8c-4.4,3-5.7,9.3-3,14c1.8,3.1,4.9,4.7,8,4.7
			c1.7,0,3.5-0.5,5-1.6c14.1-9.6,27.6-34,29.9-54.4c1.2-10.1-0.4-18.6-4.4-25.1C1246.3,649,1244.5,644.8,1241.6,641.5z M802.5,533
			l-34.2-13.4c-4.1-1.6-7.4-4.8-9.2-9.1c-1.8-4.2-2-9-0.5-13.4l15-44.1c2.9-8.5,11.3-13.2,19.3-11c0,0,0.1,0,0.1,0
			c0.5,0.1,1,0.3,1.6,0.5l34.2,13.4L802.5,533z M846.4,462.9l35.3,13.8l-26.1,77.1L820.3,540L846.4,462.9z M695.9,629.2
			c-1.6-1.1-2-2.5-1.4-4.4c0.4-1.1,1.4-2.9,3.9-2.5c42.3,6.1,83.6-1.1,114.1-19.2c1,25,5,49.5,19.4,68.4
			C787.4,667.5,737.1,657.4,695.9,629.2z M915.6,742.8c-0.7,10.2-9,18-18.7,17.2c-9.6-0.8-16.8-9.8-16-20.1
			c0.6-7.7,0.5-23.1,0.2-37.7c10.3,2.8,21.9,4.8,34.9,5.9C916.1,726.3,915.7,741.2,915.6,742.8z M1021.9,675.3
			c-1.1,0.6-2.2,1.1-3.3,1.6c-0.1,0.1-0.2,0.1-0.4,0.2c-12.8,5.8-29.1,9.5-49.6,11c0,0,0,0,0,0c-0.1,0-0.1,0-0.2,0
			c-7.5,0.6-15.5,0.8-24.1,0.8c-6.4,0-12.4-0.2-18.2-0.5c-0.2,0-0.4,0-0.6,0c-20.4-1.1-37-4.2-50.1-9.2c-0.6-0.3-1.3-0.6-2-0.8
			c-2.6-1.1-5-2.2-7.3-3.4c-0.4-0.3-0.9-0.5-1.3-0.7c-7.1-4-12.9-8.8-17.4-14.5c-10-12.6-16.3-29.9-16.3-76.7
			c0-5.6,0.4-11.2,1.3-16.7l87.2,34.1c-2.4,8.3-1.3,17.6,3.7,25.2c5,7.6,13.2,12.2,22,12.2c5.6,0,11-1.8,15.5-5.3
			c4.5-3.4,8.7-7.1,12.5-11.1l73.9,28.9C1041.6,661.2,1033.4,669.3,1021.9,675.3z M939.9,602.6c0.1-0.1,0.1-0.1,0.2-0.2
			c0.2-0.2,0.4-0.3,0.6-0.5c4.9-3.7,9.1-7.8,12.6-12.2c1.4-1.7,3.3-2.8,5.5-3c0.2,0,0.4,0,0.6,0c1.9,0,3.7,0.7,5.2,2.1
			c3.4,3.1,3.8,8.5,0.9,12.1c-4.4,5.5-9.6,10.6-15.6,15.1c-1.4,1-3,1.6-4.6,1.6c-2.6,0-5.1-1.4-6.6-3.6
			C936.3,610.3,936.9,605.4,939.9,602.6z M1135.9,663.4l-72.7-28.4c0,0,0,0,0,0c0,0,0,0,0,0l-78.3-30.6c3.3-10.8,0.5-23.2-8.1-31.1
			c-5.5-5-12.4-7.4-19.6-6.8c-7.2,0.6-13.7,4.2-18.3,10.1c-2,2.5-4.3,4.9-7,7.1l-58.5-22.9l26.1-77.1l32,12.5
			c4.9,1.9,10.3-0.8,12.1-6.1c1.8-5.3-0.7-11.1-5.6-13l-40.9-16c0,0,0,0,0,0c0,0,0,0,0,0l-93.3-36.5c-1.2-8.3-1.4-16.7-0.7-25
			l4.8-59.1c2.6-31.6,16.5-60.3,39.1-80.7c22.6-20.4,51.3-30.1,80.8-27.4l46.5,4.4c34.8,3.3,65.4,24.9,82.1,57.8
			c13.4,26.6,38.3,44.1,66.4,46.8l31.9,3c39.2,3.7,68.3,40.9,64.8,83l-3.3,40.2c-1.7,20.4-10.6,38.9-25.2,52
			c-14.6,13.2-33.1,19.4-52.1,17.6l-62.1-5.8L978.5,493c-4.9-1.9-10.3,0.8-12.1,6.1c-1.8,5.3,0.7,11.1,5.6,13l190,74.3L1135.9,663.4
			z M1188.1,660.7l-32.4,3.9l22.2-65.4l22.5,25.3L1188.1,660.7z M1227.9,655.9c0,0,0,0-0.1,0l-18.8,2.2l5.9-17.4l13,14.7
			c0.1,0.1,0.1,0.1,0.1,0.1C1228,655.7,1228,655.9,1227.9,655.9z M1106,464.3c-4.2,3.3-5.1,9.6-2.1,14.2
			c5.3,7.9,13.6,12.9,22.6,13.7c0.9,0.1,1.8,0.1,2.7,0.1c8.1,0,15.9-3.4,21.7-9.4c3.8-3.9,3.9-10.3,0.2-14.4
			c-3.6-4-9.6-4.2-13.4-0.3c-2.6,2.7-6.1,4-9.7,3.7c-3.6-0.3-6.8-2.3-9-5.4C1116.1,462,1110.2,461,1106,464.3z M933,285.2
			c-5.2-0.5-9.8,3.6-10.2,9.2l-0.9,11.1c-0.5,5.6,3.4,10.5,8.6,11c0.3,0,0.6,0,0.8,0c4.8,0,9-4,9.4-9.3l0.9-11.1
			C942.1,290.6,938.2,285.7,933,285.2z M1108.8,384.3c4.5,0.4,8.6-3.2,9-8.1c0.4-4.9-3-9.2-7.5-9.6c-4.5-0.4-8.6,3.2-9,8.1
			C1100.9,379.5,1104.3,383.8,1108.8,384.3z M1161.3,389.2c4.5,0.4,8.6-3.2,9-8.1c0.4-4.9-3-9.2-7.5-9.6s-8.6,3.2-9,8.1
			C1153.4,384.5,1156.8,388.8,1161.3,389.2z"/>
	</g>
</g>
<g>
	<g>
		<path class="st13" d="M62.4,796.9H23.6V604.3h108v31.1H62.4v50.8h64.5v30.3H62.4V796.9z"/>
		<path class="st13" d="M145.3,666.4c9.7-5.5,27.8-11.8,50.6-11.8c45.4,0,57.7,27.6,57.7,58.1v51.1c0,12.3,0.5,24.5,2.1,33.1h-34.9
			l-2.4-14.5h-0.8c-8.4,11-22.6,17.3-38.8,17.3c-27,0-43.8-19.3-43.8-41.8c0-35.8,33.3-52.6,79.7-52.6c0-13.8-5-24.3-26.2-24.3
			c-13.4,0-26.5,4-35.9,9.5L145.3,666.4z M215.8,729c-21,0-42.7,4.8-42.7,25c0,13.3,8.7,19,18.4,19c9.2,0,24.4-6.3,24.4-24V729z"/>
		<path class="st13" d="M289.5,639.1c-12.3,0-20.7-8.5-20.7-19.8c0-11.5,8.7-19.8,20.7-19.8c12.6,0,21,8.3,21,19.8
			C310.5,631.3,301.6,639.1,289.5,639.1z M309.2,657.4v139.5h-38.8V657.4H309.2z"/>
		<path class="st13" d="M324.7,763.3c7.6,4.3,22,9.3,34.1,9.3c13.6,0,20.2-5.5,20.2-14c0-8.5-5-13-21-19.5
			c-27.3-10.5-37.2-25.3-37.2-40.6c0-25,21-44.1,53.5-44.1c14.9,0,27.8,3.5,36.2,7.8l-7.3,26.1c-6.3-3.3-16.5-7.3-27.5-7.3
			c-11.8,0-18.1,5.8-18.1,13.3c0,7.8,5.5,11.8,22.3,18.5c24.7,9.8,36.2,23.3,36.2,42.6c0,26.6-21,44.1-57.4,44.1
			c-16,0-31.5-3.8-41.2-9.3L324.7,763.3z"/>
		<path class="st13" d="M415.9,733.3v-25.5h71.9v25.5H415.9z"/>
		<path class="st13" d="M610.2,677.9c12.1-17,27-23.3,43.3-23.3c25.4,0,45.1,17.3,45.1,57.6v84.7h-38V718c0-20-5.8-33.3-21.2-33.3
			c-10.8,0-22.8,8-22.8,27.6v84.7h-38v-82.4c0-16.5-5.5-29.8-20.7-29.8c-10.8,0-23.3,9.5-23.3,28.3v83.9h-38v-97.4
			c0-16.3-0.5-29.6-1-41.8h33l1.8,18.5h0.8c6.8-10,19.7-21.5,41.4-21.5c17.8,0,31.5,9,37.2,23.3H610.2z"/>
		<path class="st13" d="M842.6,726c0,53.1-35.7,73.6-68.2,73.6c-39.3,0-67.7-26.6-67.7-71.9c0-46.8,29.6-73.4,69.2-73.4
			C816.9,654.4,842.6,683.7,842.6,726z M775.2,681.7c-21.5,0-29.1,24-29.1,45.3c0,24.8,10,45.3,28.8,45.3
			c18.4,0,28.3-20.8,28.3-45.6C803.2,705,795.1,681.7,775.2,681.7z"/>
		<path class="st13" d="M872,639.1c-12.3,0-20.7-8.5-20.7-19.8c0-11.5,8.7-19.8,20.7-19.8c12.6,0,21,8.3,21,19.8
			C892.9,631.3,884,639.1,872,639.1z M891.6,657.4v139.5h-38.8V657.4H891.6z"/>
		<path class="st13" d="M1070.7,657.4v96.9c0,16.5,0.8,30.8,1.3,42.6h-33.8l-1.8-18.5h-0.8c-6,9-19.4,21.3-42,21.3
			c-27.8,0-46.7-17.3-46.7-59.1v-83.2h38.8V735c0,21,6.3,34.3,22.3,34.3c12.6,0,23.9-10.3,23.9-26.1v-85.9H1070.7z"/>
		<path class="st13" d="M1123.2,676.4c6.6-10.3,21-21.8,42.2-21.8c26.7,0,47.5,17.8,47.5,56.9v85.4h-38.8v-81.4
			c0-17-5.8-30.6-22.3-30.6c-10.5,0-24.9,7.8-24.9,29.1v82.9H1088v-97.4c0-16.3-0.5-29.6-1-41.8h33.6l1.8,18.8H1123.2z"/>
		<path class="st13" d="M1394.1,595.5v161.6c0,14,0.5,29.6,1,39.8H1361l-1.8-19.8h-0.8c-7.6,13.8-23.3,22.5-41.2,22.5
			c-33,0-56.6-29.1-56.6-71.4c0-47.6,27.5-73.6,59-73.6c17,0,29.4,6.8,35.1,16.3h0.5v-75.4H1394.1z M1355.3,714.2
			c0-20.3-12.8-30.3-25.7-30.3c-19.9,0-29.9,19.5-29.9,43.8c0,25.3,11,42.1,29.4,42.1c11.5,0,26.2-8,26.2-30.1V714.2z"/>
		<path class="st13" d="M1440.5,738.3c1,23.8,18.9,33.3,39.9,33.3c14.4,0,25.7-2.5,35.7-5.8l5.5,25.5c-12.1,5-29.1,8-47.2,8
			c-45.1,0-70.8-27.1-70.8-70.4c0-40.1,24.1-74.6,66.9-74.6c35.4,0,58.5,24,58.5,69.1c0,5.5-0.3,10.8-1,14.8H1440.5z M1492.9,712.5
			c0.3-14.5-5.8-32.3-24.9-32.3c-18.6,0-26.5,18.5-27.5,32.3H1492.9z"/>
		<path class="st13" d="M1536.5,763.3c7.6,4.3,22,9.3,34.1,9.3c13.6,0,20.2-5.5,20.2-14c0-8.5-5-13-21-19.5
			c-27.3-10.5-37.2-25.3-37.2-40.6c0-25,21-44.1,53.5-44.1c14.9,0,27.8,3.5,36.2,7.8l-7.3,26.1c-6.3-3.3-16.5-7.3-27.5-7.3
			c-11.8,0-18.1,5.8-18.1,13.3c0,7.8,5.5,11.8,22.3,18.5c24.7,9.8,36.2,23.3,36.2,42.6c0,26.6-21,44.1-57.4,44.1
			c-16,0-31.5-3.8-41.2-9.3L1536.5,763.3z"/>
		<path class="st13" d="M1634.8,763.3c7.6,4.3,22,9.3,34.1,9.3c13.6,0,20.2-5.5,20.2-14c0-8.5-5-13-21-19.5
			c-27.3-10.5-37.2-25.3-37.2-40.6c0-25,21-44.1,53.5-44.1c14.9,0,27.8,3.5,36.2,7.8l-7.3,26.1c-6.3-3.3-16.5-7.3-27.5-7.3
			c-11.8,0-18.1,5.8-18.1,13.3c0,7.8,5.5,11.8,22.3,18.5c24.7,9.8,36.2,23.3,36.2,42.6c0,26.6-21,44.1-57.4,44.1
			c-16,0-31.5-3.8-41.2-9.3L1634.8,763.3z"/>
		<path class="st13" d="M1753.9,639.1c-12.3,0-20.7-8.5-20.7-19.8c0-11.5,8.7-19.8,20.7-19.8c12.6,0,21,8.3,21,19.8
			C1774.8,631.3,1765.9,639.1,1753.9,639.1z M1773.5,657.4v139.5h-38.8V657.4H1773.5z"/>
		<path class="st13" d="M1825.7,676.4c6.6-10.3,21-21.8,42.2-21.8c26.7,0,47.5,17.8,47.5,56.9v85.4h-38.8v-81.4
			c0-17-5.8-30.6-22.3-30.6c-10.5,0-24.9,7.8-24.9,29.1v82.9h-38.8v-97.4c0-16.3-0.5-29.6-1-41.8h33.6l1.8,18.8H1825.7z"/>
	</g>
</g>
</svg>
